<?xml version="1.0" encoding="utf-8"?>
<!-- Uploaded to: SVG Repo, www.svgrepo.com, Generator: SVG Repo Mixer Tools -->
<svg fill="#000000" width="800px" height="800px" viewBox="0 0 32 32" version="1.1" xmlns="http://www.w3.org/2000/svg">
<title>paypal</title>
<path d="M27.508 9.657c-0.223-0.253-0.472-0.476-0.744-0.666l-0.013-0.009c-0.016 0.095-0.032 0.218-0.051 0.317-1.161 5.963-4.998 8.986-11.404 8.986h-2.733c-0.351 0-0.641 0.258-0.693 0.594l-0.001 0.004-1.481 9.393h-0.631l-0.3 1.892c-0.005 0.033-0.008 0.070-0.008 0.109 0 0.386 0.313 0.699 0.699 0.699 0 0 0.001 0 0.001 0h4.844c0 0 0 0 0 0 0.579 0 1.060-0.423 1.149-0.977l0.001-0.007c0.075-0.324 0.948-6.055 1.018-6.352 0.090-0.56 0.57-0.983 1.149-0.983 0.001 0 0.002 0 0.003 0h0.724c4.692 0 8.367-1.907 9.441-7.42 0.171-0.546 0.269-1.173 0.269-1.823 0-1.414-0.465-2.72-1.251-3.773l0.012 0.017zM9.855 27.652h-5.748c-0.442-0-0.8-0.358-0.8-0.8 0-0.044 0.003-0.086 0.010-0.128l-0.001 0.005 3.877-24.579c0.104-0.641 0.653-1.124 1.315-1.124h9.31c0.296-0.033 0.638-0.053 0.985-0.053 2.349 0 4.494 0.876 6.125 2.32l-0.010-0.009c0.898 1.036 1.446 2.398 1.446 3.887 0 0.52-0.067 1.024-0.192 1.504l0.009-0.041c-0.029 0.178-0.059 0.359-0.096 0.545-1.227 6.302-5.427 8.482-10.791 8.482h-2.733c-0.66 0.001-1.208 0.484-1.309 1.116l-0.001 0.008z"></path>
</svg>